<svg width="29" height="29" viewBox="0 0 29 29" fill="none" xmlns="http://www.w3.org/2000/svg">
<path d="M23.2127 27.0416L24.627 28.4558L27.4554 25.6274L26.0412 24.2132L23.2127 27.0416ZM3.41375 1.58579C2.6327 0.804739 1.36637 0.804739 0.585323 1.58579C-0.195726 2.36684 -0.195726 3.63317 0.585323 4.41422L3.41375 1.58579ZM26.0412 24.2132L3.41375 1.58579L0.585323 4.41422L23.2127 27.0416L26.0412 24.2132Z" fill="black"/>
<path d="M2.27231 23.8995L0.858096 25.3137L3.68652 28.1421L5.10074 26.7279L2.27231 23.8995ZM27.7282 4.10051C28.5092 3.31946 28.5092 2.05313 27.7282 1.27208C26.9471 0.491034 25.6808 0.491034 24.8997 1.27208L27.7282 4.10051ZM5.10074 26.7279L27.7282 4.10051L24.8997 1.27208L2.27231 23.8995L5.10074 26.7279Z" fill="black"/>
</svg>
